# Blender v2.81 (sub 16) OBJ File: ''
# www.blender.org
mtllib skybox.mtl
o Cube
v 1.000000 1.000000 -1.000000
v 1.000000 -1.000000 -1.000000
v 1.000000 1.000000 1.000000
v 1.000000 -1.000000 1.000000
v -1.000000 1.000000 -1.000000
v -1.000000 -1.000000 -1.000000
v -1.000000 1.000000 1.000000
v -1.000000 -1.000000 1.000000
vt 0.250900 0.666667
vt 0.499492 0.666667
vt 0.499492 1.000000
vt 0.250900 1.000000
vt 0.998523 0.332714
vt 0.998523 0.666048
vt 0.749931 0.666048
vt 0.749931 0.332715
vt 0.749285 0.333333
vt 0.749285 0.666667
vt 0.500692 0.666667
vt 0.500692 0.333333
vt 0.251823 0.333333
vt 0.251823 0.000000
vt 0.500415 0.000000
vt 0.500415 0.333333
vt 0.247946 0.334076
vt 0.247946 0.667409
vt -0.000646 0.667409
vt -0.000646 0.334076
vt 0.499734 0.333162
vt 0.500174 0.666495
vt 0.251582 0.667085
vt 0.251142 0.333752
vn 0.0000 1.0000 0.0000
vn 0.0000 0.0000 1.0000
vn -1.0000 0.0000 0.0000
vn 0.0000 -1.0000 0.0000
vn 1.0000 0.0000 0.0000
vn 0.0000 0.0000 -1.0000
usemtl Material
s off
f 1/1/1 5/2/1 7/3/1 3/4/1
f 4/5/2 3/6/2 7/7/2 8/8/2
f 8/9/3 7/10/3 5/11/3 6/12/3
f 6/13/4 2/14/4 4/15/4 8/16/4
f 2/17/5 1/18/5 3/19/5 4/20/5
f 6/21/6 5/22/6 1/23/6 2/24/6
